<?xml version="1.0" encoding="utf-8"?>
<!-- Generator: Adobe Illustrator 17.1.0, SVG Export Plug-In . SVG Version: 6.00 Build 0)  -->
<!DOCTYPE svg PUBLIC "-//W3C//DTD SVG 1.1//EN" "http://www.w3.org/Graphics/SVG/1.1/DTD/svg11.dtd">
<svg version="1.1" id="Layer_1" xmlns="http://www.w3.org/2000/svg" xmlns:xlink="http://www.w3.org/1999/xlink" x="0px" y="0px"
	 viewBox="0 0 61.905 61.905" enable-background="new 0 0 61.905 61.905" xml:space="preserve">
<circle opacity="0.5" cx="30.952" cy="30.952" r="30.952"/>
<g>
	<path fill="#FFFFFF" d="M38.407,30.825c0,0.542-0.193,1.016-0.578,1.422L27.642,42.419c-0.386,0.385-0.854,0.578-1.406,0.578
		c-0.552,0-1.021-0.193-1.406-0.578l-1.188-1.172c-0.386-0.406-0.578-0.88-0.578-1.422c0-0.552,0.192-1.021,0.578-1.406l7.594-7.594
		l-7.594-7.578c-0.386-0.406-0.578-0.88-0.578-1.422c0-0.552,0.192-1.021,0.578-1.406l1.188-1.172
		c0.375-0.396,0.844-0.594,1.406-0.594s1.031,0.198,1.406,0.594l10.188,10.172C38.214,29.805,38.407,30.273,38.407,30.825z"/>
</g>
</svg>
